<svg id="Layer_1" data-name="Layer 1" xmlns="http://www.w3.org/2000/svg" viewBox="0 0 638 638"><defs><style>.cls-1,.cls-2,.cls-3{fill-rule:evenodd;}.cls-2{fill:#fff;}.cls-3{fill:#ff0001;}</style></defs><title>Red Hot Chili Peppers Logo Vector</title><path class="cls-1" d="M500,181c176.15,0,319,142.85,319,319S676.15,819,500,819,181,676.15,181,500,323.85,181,500,181Z" transform="translate(-181 -181)"/><path class="cls-2" d="M214.39,501.29l4.38-34c3.22-25,21.17-32,45.22-28.93,24.34,3.13,40.32,14.13,37.06,39.53l-4.38,34-82.28-10.59Zm21.08-19.83,46.6,6,.79-6.12c1.95-15.24-6.63-18.52-21-20.37-13.3-1.71-23.72-.45-25.6,14.26l-.82,6.23Zm547.47-22.67,2.57,37.81c1.08,16.08-6.14,25.9-23,27-18.23,1.24-27.83-8.29-29-25.24l-.93-13.7-31.3,2.12-1.52-22.39,83.15-5.64Zm-34.85,24.73c.47,6.88.11,19.28,11.61,18.42,10.47-.78,8.83-12.51,8.34-19.65l-19.95,1.23ZM325.36,329.76c-16.44-22.86-14.64-46.84,5.45-60.49s42.53-10.69,59.09,13.86c12.42,18.4,18.8,41.34-5.2,59.65-22.33,17.05-44.63,7.42-59.34-13ZM344,316.06c6.27,8.62,17,19.71,28.6,11s4.39-21.63-1.85-30.81c-5.95-8.75-17.17-18.78-28.46-10.71-10.14,7.24-6.1,19.73,1.71,30.49Zm84.4,401-18.92-8.69c2.88-7.62,2.79-15-5-19.19-4.42-2.38-11.52-2.57-14.5,2.56-4.39,7.56,5.33,15.1,9.36,18.77,9.06,8.25,18.74,21.24,10.16,35.65s-24.78,12.86-38.15,5.67c-15-8.08-23.24-19.5-16.43-37l19.29,9c-2.22,6.64-.39,12.37,5.79,15.7,3.5,1.88,8.7,1.84,10.95-2.35s-1.47-7.22-4-9.38c-11.73-10-28.8-25.9-16.95-44.76,10.8-17.17,28.64-15.12,43.66-6.45,16.18,9.34,23.34,20.54,14.71,40.48Zm64.95,29.77-10.81-.28c-16.75-.3-15.73,18.75-.78,19.05l11.26.28.33-19Zm23.07-47.78-1.61,82.65L473,780.88c-12.57-.25-25.34-4.62-25-23.7.23-11.81,6-18.2,16.43-21.43,1.86-.58,1.84-1.94,0-2.91-4.61-2.4-7.91-7.2-10.42-12.46l-9.76-22.84,24.89.49,11.45,25c2.35,4.64,5.25,9.51,10.89,9.62l2.23,0,.65-34.12,22.11.44ZM781.87,548,765,607.39l-17-4.69,10.49-38-14.64-4.05-9.72,35.19-16.45-4.54,9.71-35.19-18-5L698.62,590.4l-17.73-4.9,16.79-60.79L781.87,548ZM760.68,389.68l7.69,21.18-77.92,28.29L682.76,418l77.92-28.28Zm-48.75-75,13.19,18.45-51.36,36.7,21.12,29.55L678.6,411l-34.3-48,67.63-48.33ZM669.7,278.13l17.74,13.68-51.3,66L618.4,344.17l51.3-66ZM375.89,241.9,443.54,222l5.64,19.19-23,6.75L444,308.73l-21.63,6.34-17.83-60.74-23,6.76-5.63-19.19Zm-133,137.59L255,361.13l25.34,16.7,14.83-22.5-25.34-16.7,13.06-19.83L352.94,365l-13.06,19.82-28-18.48L297,388.84l28,18.48L313,425.67l-70.08-46.18ZM469.52,263c-.85-26.67,13.25-44.27,36.25-44.68C524,218,537,226.71,541.89,243.87l-19.54,4.38c-1.83-6.59-5.76-12.07-13.87-11.84-11.8.34-16.74,13.07-16.28,25.66.37,10.09,2.17,24.48,15.89,23.79,9.89-.51,13.74-7.95,15.09-16l19.39,6.27c-3.1,14.9-11.94,27.17-33.27,28.46-26.57,1.6-39-17.76-39.78-41.61Zm111.25-35.55,19.85,9.46-13.06,27.39,24.33,11.6L625,248.49l21.43,10.21-36.12,75.76-21.43-10.21,14.46-30.31L579,282.34l-14.44,30.31-19.85-9.47,36.11-75.75ZM749.05,638l-20.18,32.08c-8.59,13.63-20.21,17.31-34.5,8.32-15.47-9.73-17.62-23.08-8.58-37.46l7.32-11.63-26.54-16.7,11.95-19L749.05,638Zm-42.73-.52c-3.67,5.83-11.26,15.65-1.46,21.72,8.93,5.54,14.5-4.91,18.31-11l-16.85-10.75Zm-15.19,75.14-30.71,22.21c-13.06,9.44-25.22,8.52-35.11-5.17-10.71-14.8-7.72-28,6-38l11.14-8L624.1,658.28l18.18-13.15,48.85,67.52ZM651.68,696.2c-5.58,4-16.28,10.31-9.47,19.61,6.22,8.47,15.3.86,21.09-3.34L651.68,696.2Zm-33.51,64.6-58.54,19.75-5.52-16,37.24-12.88-4.64-13.42-34.5,11.93-5.28-15.28L581.43,723l-5.63-16.3L537.33,720l-6-17.38L590.93,682l27.24,78.8ZM236.86,608.74l-17.93-59.12,16.16-5,11.71,37.62L260.36,578l-10.85-34.86,15.43-4.8,10.85,34.85,16.46-5.12-12.1-38.86,17.56-5.46L316.46,584l-79.6,24.78ZM309,660.11l-6.16-9.2c-9.65-14.17-25-2.06-16.37,10.61l6.41,9.57,16.12-11Zm53.56-9-70,47.49-24-35.49c-7.22-10.65-11.12-23.9,5.05-34.86,10-6.79,18.77-5.72,27.62,1.07,1.58,1.21,2.71.39,2.42-1.75-.72-5.27,1.34-10.87,4.26-16.06l13.31-21.66L335.41,611l-14.16,24.37c-2.48,4.71-4.85,10-1.61,14.79l1.28,1.88,28.9-19.61,12.7,18.74Z" transform="translate(-181 -181)"/><polygon class="cls-3" points="414.65 170.4 467.6 223.35 409.39 281.56 491.72 281.56 491.72 356.44 409.39 356.44 467.6 414.65 414.65 467.6 356.44 409.39 356.44 491.72 281.56 491.72 281.56 409.39 223.34 467.6 170.4 414.65 228.61 356.44 146.28 356.44 146.28 281.56 228.61 281.56 170.4 223.35 223.34 170.4 281.56 228.61 281.56 146.28 356.44 146.28 356.44 228.61 414.65 170.4 414.65 170.4"/></svg>